<mxfile host="app.diagrams.net" modified="2023-12-19T03:11:50.115Z" agent="Mozilla/5.0 (Windows NT 10.0; Win64; x64) AppleWebKit/537.36 (KHTML, like Gecko) Chrome/119.0.0.0 Safari/537.36 OPR/105.0.0.0" etag="GD_C2-uffwFu7DWuN4jl" version="22.1.11" type="github">
  <diagram name="Page-1" id="ySlSw5_M_sLU7GGw0Z9M">
    <mxGraphModel dx="1794" dy="1034" grid="1" gridSize="10" guides="1" tooltips="1" connect="1" arrows="1" fold="1" page="1" pageScale="1" pageWidth="827" pageHeight="1169" math="0" shadow="0">
      <root>
        <mxCell id="0" />
        <mxCell id="1" parent="0" />
        <mxCell id="G_eq-ZpYtLYm9ykq4yQ2-38" style="edgeStyle=orthogonalEdgeStyle;rounded=0;orthogonalLoop=1;jettySize=auto;html=1;entryX=0.5;entryY=0;entryDx=0;entryDy=0;" edge="1" parent="1" source="G_eq-ZpYtLYm9ykq4yQ2-39" target="G_eq-ZpYtLYm9ykq4yQ2-47">
          <mxGeometry relative="1" as="geometry" />
        </mxCell>
        <mxCell id="G_eq-ZpYtLYm9ykq4yQ2-39" value="Начало (Персонаж находится в коллизии триггера задания)" style="ellipse;whiteSpace=wrap;html=1;" vertex="1" parent="1">
          <mxGeometry x="327.5" y="20" width="162" height="120" as="geometry" />
        </mxCell>
        <mxCell id="G_eq-ZpYtLYm9ykq4yQ2-40" style="edgeStyle=orthogonalEdgeStyle;rounded=0;orthogonalLoop=1;jettySize=auto;html=1;entryX=0.5;entryY=0;entryDx=0;entryDy=0;" edge="1" parent="1" source="G_eq-ZpYtLYm9ykq4yQ2-41" target="G_eq-ZpYtLYm9ykq4yQ2-60">
          <mxGeometry relative="1" as="geometry" />
        </mxCell>
        <mxCell id="G_eq-ZpYtLYm9ykq4yQ2-41" value="Передача задания на проверку" style="rounded=0;whiteSpace=wrap;html=1;" vertex="1" parent="1">
          <mxGeometry x="348.5" y="350" width="120" height="60" as="geometry" />
        </mxCell>
        <mxCell id="G_eq-ZpYtLYm9ykq4yQ2-42" style="edgeStyle=orthogonalEdgeStyle;rounded=0;orthogonalLoop=1;jettySize=auto;html=1;" edge="1" parent="1" source="G_eq-ZpYtLYm9ykq4yQ2-43">
          <mxGeometry relative="1" as="geometry">
            <mxPoint x="410" y="290" as="targetPoint" />
            <Array as="points">
              <mxPoint x="602" y="290" />
            </Array>
          </mxGeometry>
        </mxCell>
        <mxCell id="G_eq-ZpYtLYm9ykq4yQ2-43" value="Извлечение структуры задания предмета" style="rounded=0;whiteSpace=wrap;html=1;" vertex="1" parent="1">
          <mxGeometry x="541.5" y="180" width="120" height="60" as="geometry" />
        </mxCell>
        <mxCell id="G_eq-ZpYtLYm9ykq4yQ2-44" style="edgeStyle=orthogonalEdgeStyle;rounded=0;orthogonalLoop=1;jettySize=auto;html=1;" edge="1" parent="1" source="G_eq-ZpYtLYm9ykq4yQ2-45" target="G_eq-ZpYtLYm9ykq4yQ2-43">
          <mxGeometry relative="1" as="geometry" />
        </mxCell>
        <mxCell id="G_eq-ZpYtLYm9ykq4yQ2-45" value="Начало (Персонаж взял предмет задания)" style="ellipse;whiteSpace=wrap;html=1;" vertex="1" parent="1">
          <mxGeometry x="520.5" y="20" width="162" height="120" as="geometry" />
        </mxCell>
        <mxCell id="G_eq-ZpYtLYm9ykq4yQ2-46" style="edgeStyle=orthogonalEdgeStyle;rounded=0;orthogonalLoop=1;jettySize=auto;html=1;exitX=0.5;exitY=1;exitDx=0;exitDy=0;entryX=0.5;entryY=0;entryDx=0;entryDy=0;" edge="1" parent="1" source="G_eq-ZpYtLYm9ykq4yQ2-47" target="G_eq-ZpYtLYm9ykq4yQ2-41">
          <mxGeometry relative="1" as="geometry" />
        </mxCell>
        <mxCell id="G_eq-ZpYtLYm9ykq4yQ2-47" value="Извлечение структуры задания триггера" style="rounded=0;whiteSpace=wrap;html=1;" vertex="1" parent="1">
          <mxGeometry x="348.5" y="180" width="120" height="60" as="geometry" />
        </mxCell>
        <mxCell id="G_eq-ZpYtLYm9ykq4yQ2-48" style="edgeStyle=orthogonalEdgeStyle;rounded=0;orthogonalLoop=1;jettySize=auto;html=1;entryX=0.5;entryY=0;entryDx=0;entryDy=0;" edge="1" parent="1" source="G_eq-ZpYtLYm9ykq4yQ2-49" target="G_eq-ZpYtLYm9ykq4yQ2-51">
          <mxGeometry relative="1" as="geometry" />
        </mxCell>
        <mxCell id="G_eq-ZpYtLYm9ykq4yQ2-49" value="Начало (Инициализация)" style="ellipse;whiteSpace=wrap;html=1;" vertex="1" parent="1">
          <mxGeometry x="128.5" y="20" width="162" height="120" as="geometry" />
        </mxCell>
        <mxCell id="G_eq-ZpYtLYm9ykq4yQ2-50" style="edgeStyle=orthogonalEdgeStyle;rounded=0;orthogonalLoop=1;jettySize=auto;html=1;entryX=0.5;entryY=0;entryDx=0;entryDy=0;" edge="1" parent="1" source="G_eq-ZpYtLYm9ykq4yQ2-51" target="G_eq-ZpYtLYm9ykq4yQ2-55">
          <mxGeometry relative="1" as="geometry" />
        </mxCell>
        <mxCell id="G_eq-ZpYtLYm9ykq4yQ2-51" value="Создание виджета заданий" style="rounded=0;whiteSpace=wrap;html=1;" vertex="1" parent="1">
          <mxGeometry x="149.5" y="180" width="120" height="60" as="geometry" />
        </mxCell>
        <mxCell id="G_eq-ZpYtLYm9ykq4yQ2-52" style="edgeStyle=orthogonalEdgeStyle;rounded=0;orthogonalLoop=1;jettySize=auto;html=1;" edge="1" parent="1" source="G_eq-ZpYtLYm9ykq4yQ2-53" target="G_eq-ZpYtLYm9ykq4yQ2-62">
          <mxGeometry relative="1" as="geometry" />
        </mxCell>
        <mxCell id="G_eq-ZpYtLYm9ykq4yQ2-53" value="Извлечение инициализационной структуры задания" style="rounded=0;whiteSpace=wrap;html=1;" vertex="1" parent="1">
          <mxGeometry x="140" y="395" width="139" height="70" as="geometry" />
        </mxCell>
        <mxCell id="G_eq-ZpYtLYm9ykq4yQ2-54" style="edgeStyle=orthogonalEdgeStyle;rounded=0;orthogonalLoop=1;jettySize=auto;html=1;entryX=0.5;entryY=0;entryDx=0;entryDy=0;" edge="1" parent="1" source="G_eq-ZpYtLYm9ykq4yQ2-55" target="G_eq-ZpYtLYm9ykq4yQ2-53">
          <mxGeometry relative="1" as="geometry" />
        </mxCell>
        <mxCell id="G_eq-ZpYtLYm9ykq4yQ2-55" value="Добавление виджета заданий на экран" style="rounded=0;whiteSpace=wrap;html=1;" vertex="1" parent="1">
          <mxGeometry x="149.5" y="290" width="119" height="60" as="geometry" />
        </mxCell>
        <mxCell id="G_eq-ZpYtLYm9ykq4yQ2-56" style="edgeStyle=orthogonalEdgeStyle;rounded=0;orthogonalLoop=1;jettySize=auto;html=1;exitX=0;exitY=0.5;exitDx=0;exitDy=0;" edge="1" parent="1" source="G_eq-ZpYtLYm9ykq4yQ2-60">
          <mxGeometry relative="1" as="geometry">
            <mxPoint x="210" y="533" as="targetPoint" />
          </mxGeometry>
        </mxCell>
        <mxCell id="G_eq-ZpYtLYm9ykq4yQ2-57" value="&lt;font style=&quot;font-size: 25px;&quot;&gt;ДА&lt;/font&gt;" style="edgeLabel;html=1;align=center;verticalAlign=middle;resizable=0;points=[];" vertex="1" connectable="0" parent="G_eq-ZpYtLYm9ykq4yQ2-56">
          <mxGeometry x="0.2148" y="-1" relative="1" as="geometry">
            <mxPoint x="9" as="offset" />
          </mxGeometry>
        </mxCell>
        <mxCell id="G_eq-ZpYtLYm9ykq4yQ2-58" style="edgeStyle=orthogonalEdgeStyle;rounded=0;orthogonalLoop=1;jettySize=auto;html=1;exitX=1;exitY=0.5;exitDx=0;exitDy=0;entryX=1;entryY=0.5;entryDx=0;entryDy=0;" edge="1" parent="1" source="G_eq-ZpYtLYm9ykq4yQ2-60" target="G_eq-ZpYtLYm9ykq4yQ2-74">
          <mxGeometry relative="1" as="geometry">
            <mxPoint x="450" y="870" as="targetPoint" />
          </mxGeometry>
        </mxCell>
        <mxCell id="G_eq-ZpYtLYm9ykq4yQ2-59" value="&lt;font style=&quot;font-size: 25px;&quot;&gt;НЕТ&lt;/font&gt;" style="edgeLabel;html=1;align=center;verticalAlign=middle;resizable=0;points=[];" vertex="1" connectable="0" parent="G_eq-ZpYtLYm9ykq4yQ2-58">
          <mxGeometry x="-0.8591" y="-1" relative="1" as="geometry">
            <mxPoint as="offset" />
          </mxGeometry>
        </mxCell>
        <mxCell id="G_eq-ZpYtLYm9ykq4yQ2-60" value="Уровень&lt;br&gt;нового задания&lt;br&gt;находится в&amp;nbsp;промежутке&lt;br&gt;развития сюжета, указанном в&lt;br&gt;структуре текущего&lt;br&gt;задания?" style="rhombus;whiteSpace=wrap;html=1;" vertex="1" parent="1">
          <mxGeometry x="287.88" y="465" width="241.25" height="135" as="geometry" />
        </mxCell>
        <mxCell id="G_eq-ZpYtLYm9ykq4yQ2-61" style="edgeStyle=orthogonalEdgeStyle;rounded=0;orthogonalLoop=1;jettySize=auto;html=1;entryX=0.5;entryY=0;entryDx=0;entryDy=0;" edge="1" parent="1" source="G_eq-ZpYtLYm9ykq4yQ2-62" target="G_eq-ZpYtLYm9ykq4yQ2-64">
          <mxGeometry relative="1" as="geometry" />
        </mxCell>
        <mxCell id="G_eq-ZpYtLYm9ykq4yQ2-62" value="Изменение текущей структуры задания персонажа" style="rounded=0;whiteSpace=wrap;html=1;" vertex="1" parent="1">
          <mxGeometry x="149.5" y="620" width="120" height="60" as="geometry" />
        </mxCell>
        <mxCell id="G_eq-ZpYtLYm9ykq4yQ2-63" style="edgeStyle=orthogonalEdgeStyle;rounded=0;orthogonalLoop=1;jettySize=auto;html=1;entryX=0.5;entryY=0;entryDx=0;entryDy=0;" edge="1" parent="1" source="G_eq-ZpYtLYm9ykq4yQ2-64" target="G_eq-ZpYtLYm9ykq4yQ2-66">
          <mxGeometry relative="1" as="geometry" />
        </mxCell>
        <mxCell id="G_eq-ZpYtLYm9ykq4yQ2-64" value="Отравка обновлённого названия задания в виджет заданий&amp;nbsp;" style="rounded=0;whiteSpace=wrap;html=1;" vertex="1" parent="1">
          <mxGeometry x="124.5" y="750" width="170" height="60" as="geometry" />
        </mxCell>
        <mxCell id="G_eq-ZpYtLYm9ykq4yQ2-65" style="edgeStyle=orthogonalEdgeStyle;rounded=0;orthogonalLoop=1;jettySize=auto;html=1;entryX=0.5;entryY=0;entryDx=0;entryDy=0;" edge="1" parent="1" source="G_eq-ZpYtLYm9ykq4yQ2-66" target="G_eq-ZpYtLYm9ykq4yQ2-71">
          <mxGeometry relative="1" as="geometry" />
        </mxCell>
        <mxCell id="G_eq-ZpYtLYm9ykq4yQ2-66" value="Обновление виджета заданий" style="rounded=0;whiteSpace=wrap;html=1;" vertex="1" parent="1">
          <mxGeometry x="149" y="880" width="120" height="60" as="geometry" />
        </mxCell>
        <mxCell id="G_eq-ZpYtLYm9ykq4yQ2-67" style="edgeStyle=orthogonalEdgeStyle;rounded=0;orthogonalLoop=1;jettySize=auto;html=1;entryX=0.5;entryY=0;entryDx=0;entryDy=0;exitX=0;exitY=0.5;exitDx=0;exitDy=0;" edge="1" parent="1" source="G_eq-ZpYtLYm9ykq4yQ2-71" target="G_eq-ZpYtLYm9ykq4yQ2-73">
          <mxGeometry relative="1" as="geometry" />
        </mxCell>
        <mxCell id="G_eq-ZpYtLYm9ykq4yQ2-68" value="&lt;font style=&quot;font-size: 25px;&quot;&gt;ДА&lt;/font&gt;" style="edgeLabel;html=1;align=center;verticalAlign=middle;resizable=0;points=[];" vertex="1" connectable="0" parent="G_eq-ZpYtLYm9ykq4yQ2-67">
          <mxGeometry x="-0.0562" y="2" relative="1" as="geometry">
            <mxPoint x="-2" y="28" as="offset" />
          </mxGeometry>
        </mxCell>
        <mxCell id="G_eq-ZpYtLYm9ykq4yQ2-69" style="edgeStyle=orthogonalEdgeStyle;rounded=0;orthogonalLoop=1;jettySize=auto;html=1;entryX=0.5;entryY=0;entryDx=0;entryDy=0;exitX=1;exitY=0.5;exitDx=0;exitDy=0;" edge="1" parent="1" source="G_eq-ZpYtLYm9ykq4yQ2-71" target="G_eq-ZpYtLYm9ykq4yQ2-74">
          <mxGeometry relative="1" as="geometry">
            <Array as="points">
              <mxPoint x="320" y="1050" />
              <mxPoint x="320" y="1160" />
              <mxPoint x="209" y="1160" />
            </Array>
          </mxGeometry>
        </mxCell>
        <mxCell id="G_eq-ZpYtLYm9ykq4yQ2-70" value="&lt;font style=&quot;font-size: 25px;&quot;&gt;НЕТ&lt;/font&gt;" style="edgeLabel;html=1;align=center;verticalAlign=middle;resizable=0;points=[];" vertex="1" connectable="0" parent="G_eq-ZpYtLYm9ykq4yQ2-69">
          <mxGeometry x="0.004" y="1" relative="1" as="geometry">
            <mxPoint x="11" y="-51" as="offset" />
          </mxGeometry>
        </mxCell>
        <mxCell id="G_eq-ZpYtLYm9ykq4yQ2-71" value="Триггер&lt;br&gt;изменил&lt;br&gt;задание?" style="rhombus;whiteSpace=wrap;html=1;" vertex="1" parent="1">
          <mxGeometry x="139.5" y="1000" width="139" height="100" as="geometry" />
        </mxCell>
        <mxCell id="G_eq-ZpYtLYm9ykq4yQ2-72" style="edgeStyle=orthogonalEdgeStyle;rounded=0;orthogonalLoop=1;jettySize=auto;html=1;entryX=0;entryY=0.5;entryDx=0;entryDy=0;exitX=0.5;exitY=1;exitDx=0;exitDy=0;" edge="1" parent="1" source="G_eq-ZpYtLYm9ykq4yQ2-73" target="G_eq-ZpYtLYm9ykq4yQ2-74">
          <mxGeometry relative="1" as="geometry" />
        </mxCell>
        <mxCell id="G_eq-ZpYtLYm9ykq4yQ2-73" value="Удаление триггера" style="rounded=0;whiteSpace=wrap;html=1;" vertex="1" parent="1">
          <mxGeometry x="20" y="1120" width="120" height="70" as="geometry" />
        </mxCell>
        <mxCell id="G_eq-ZpYtLYm9ykq4yQ2-74" value="Конец" style="ellipse;whiteSpace=wrap;html=1;" vertex="1" parent="1">
          <mxGeometry x="149.5" y="1220" width="120" height="80" as="geometry" />
        </mxCell>
      </root>
    </mxGraphModel>
  </diagram>
</mxfile>
